<?xml version="1.0" encoding="UTF-8"?>
<svg xmlns="http://www.w3.org/2000/svg" xmlns:xlink="http://www.w3.org/1999/xlink" width="29pt" height="29pt" viewBox="0 0 29 29" version="1.1">
<g id="surface1">
<path style=" stroke:none;fill-rule:nonzero;fill:rgb(7.843018%,0%,19.999695%);fill-opacity:1;" d="M 29 14.5 C 29 22.507813 22.507813 29 14.5 29 C 6.492188 29 0 22.507813 0 14.5 C 0 6.492188 6.492188 0 14.5 0 C 22.507813 0 29 6.492188 29 14.5 Z M 29 14.5 "/>
<path style=" stroke:none;fill-rule:nonzero;fill:rgb(100%,100%,100%);fill-opacity:1;" d="M 18.832031 21.398438 C 17.992188 22.191406 17.074219 22.066406 16.191406 21.691406 C 15.257813 21.304688 14.398438 21.289063 13.414063 21.691406 C 12.179688 22.207031 11.527344 22.054688 10.792969 21.398438 C 6.609375 17.207031 7.226563 10.824219 11.972656 10.589844 C 13.132813 10.648438 13.9375 11.207031 14.613281 11.257813 C 15.625 11.058594 16.59375 10.484375 17.675781 10.558594 C 18.96875 10.65625 19.945313 11.15625 20.589844 12.058594 C 17.914063 13.617188 18.546875 17.039063 21 18 C 20.511719 19.25 19.878906 20.488281 18.824219 21.40625 Z M 14.527344 10.542969 C 14.398438 8.683594 15.953125 7.148438 17.734375 7 C 17.984375 9.148438 15.730469 10.75 14.527344 10.542969 Z M 14.527344 10.542969 "/>
</g>
</svg>
