<?xml version="1.0" encoding="UTF-8"?>
<svg xmlns="http://www.w3.org/2000/svg" xmlns:xlink="http://www.w3.org/1999/xlink" width="17.695312pt" height="18pt" viewBox="0 0 17.695312 18" version="1.1">
<defs>
<clipPath id="clip1">
  <path d="M 9 7 L 17.695313 7 L 17.695313 16 L 9 16 Z M 9 7 "/>
</clipPath>
</defs>
<g id="surface1">
<g clip-path="url(#clip1)" clip-rule="nonzero">
<path style=" stroke:none;fill-rule:nonzero;fill:rgb(0%,47.450256%,98.431396%);fill-opacity:1;" d="M 17.6875 9.167969 C 17.6875 8.429688 17.625 7.894531 17.496094 7.335938 L 9.023438 7.335938 L 9.023438 10.664063 L 13.996094 10.664063 C 13.894531 11.492188 13.355469 12.738281 12.152344 13.574219 L 12.136719 13.683594 L 14.8125 15.746094 L 15 15.765625 C 16.703125 14.203125 17.6875 11.898438 17.6875 9.167969 Z M 17.6875 9.167969 "/>
</g>
<path style=" stroke:none;fill-rule:nonzero;fill:rgb(20.391846%,65.881348%,32.548523%);fill-opacity:1;" d="M 9.023438 17.9375 C 11.460938 17.9375 13.503906 17.140625 15 15.765625 L 12.152344 13.574219 C 11.390625 14.101563 10.367188 14.46875 9.023438 14.46875 C 6.636719 14.46875 4.613281 12.90625 3.890625 10.742188 L 3.785156 10.753906 L 1 12.894531 L 0.960938 12.996094 C 2.445313 15.925781 5.496094 17.9375 9.023438 17.9375 Z M 9.023438 17.9375 "/>
<path style=" stroke:none;fill-rule:nonzero;fill:rgb(98.431396%,73.724365%,1.960754%);fill-opacity:1;" d="M 3.890625 10.742188 C 3.699219 10.183594 3.589844 9.585938 3.589844 8.96875 C 3.589844 8.351563 3.699219 7.753906 3.878906 7.195313 L 3.875 7.078125 L 1.054688 4.898438 L 0.960938 4.941406 C 0.351563 6.160156 0 7.523438 0 8.96875 C 0 10.414063 0.351563 11.78125 0.960938 12.996094 Z M 3.890625 10.742188 "/>
<path style=" stroke:none;fill-rule:nonzero;fill:rgb(92.155457%,26.274109%,20.783997%);fill-opacity:1;" d="M 9.023438 3.46875 C 10.71875 3.46875 11.863281 4.195313 12.511719 4.804688 L 15.058594 2.332031 C 13.496094 0.886719 11.460938 0 9.023438 0 C 5.496094 0 2.445313 2.011719 0.960938 4.941406 L 3.878906 7.195313 C 4.613281 5.03125 6.636719 3.46875 9.023438 3.46875 Z M 9.023438 3.46875 "/>
</g>
</svg>
