<?xml version="1.0" encoding="UTF-8"?>
<svg xmlns="http://www.w3.org/2000/svg" xmlns:xlink="http://www.w3.org/1999/xlink" width="110pt" height="110pt" viewBox="0 0 110 110" version="1.1">
<g id="surface1">
<path style=" stroke:none;fill-rule:nonzero;fill:rgb(7.843018%,0%,19.999695%);fill-opacity:0.7;" d="M 92.09375 9.167969 C 92.09375 8.355469 91.773438 7.578125 91.199219 7.007813 C 90.628906 6.433594 89.851563 6.109375 89.039063 6.109375 L 21.816406 6.109375 C 21.007813 6.109375 20.230469 6.433594 19.65625 7.007813 C 19.082031 7.578125 18.761719 8.355469 18.761719 9.167969 L 18.761719 12.222656 L 92.09375 12.222656 Z M 92.09375 9.167969 "/>
<path style=" stroke:none;fill-rule:nonzero;fill:rgb(7.843018%,0%,19.999695%);fill-opacity:0.7;" d="M 98.144531 21.390625 C 98.144531 20.578125 97.824219 19.800781 97.25 19.226563 C 96.675781 18.65625 95.898438 18.332031 95.089844 18.332031 L 15.644531 18.332031 C 14.835938 18.332031 14.058594 18.65625 13.484375 19.226563 C 12.910156 19.800781 12.589844 20.578125 12.589844 21.390625 L 12.589844 24.445313 L 98.144531 24.445313 Z M 98.144531 21.390625 "/>
<path style=" stroke:none;fill-rule:nonzero;fill:rgb(7.843018%,0%,19.999695%);fill-opacity:0.7;" d="M 98.144531 30.554688 L 11.855469 30.554688 C 10.332031 30.554688 8.871094 31.160156 7.792969 32.238281 C 6.714844 33.316406 6.109375 34.777344 6.109375 36.300781 L 6.109375 92.035156 C 6.109375 93.558594 6.714844 95.019531 7.792969 96.09375 C 8.871094 97.171875 10.332031 97.777344 11.855469 97.777344 L 98.144531 97.777344 C 99.667969 97.777344 101.128906 97.171875 102.207031 96.09375 C 103.285156 95.019531 103.890625 93.558594 103.890625 92.035156 L 103.890625 36.300781 C 103.890625 34.777344 103.285156 33.316406 102.207031 32.238281 C 101.128906 31.160156 99.667969 30.554688 98.144531 30.554688 Z M 26.15625 41.097656 C 27.96875 41.097656 29.742188 41.636719 31.25 42.640625 C 32.757813 43.648438 33.929688 45.082031 34.625 46.757813 C 35.320313 48.429688 35.5 50.273438 35.144531 52.050781 C 34.792969 53.832031 33.917969 55.464844 32.636719 56.746094 C 31.355469 58.027344 29.722656 58.902344 27.945313 59.253906 C 26.164063 59.609375 24.324219 59.425781 22.648438 58.734375 C 20.972656 58.039063 19.542969 56.863281 18.535156 55.355469 C 17.527344 53.847656 16.988281 52.078125 16.988281 50.265625 C 16.988281 47.832031 17.953125 45.5 19.675781 43.78125 C 21.394531 42.0625 23.726563 41.097656 26.15625 41.097656 Z M 91.667969 85.554688 L 18.332031 85.554688 L 41.128906 62.730469 C 41.535156 62.328125 42.082031 62.101563 42.65625 62.101563 C 43.226563 62.101563 43.777344 62.328125 44.183594 62.730469 L 55.429688 73.976563 L 70.917969 58.054688 C 71.324219 57.652344 71.875 57.425781 72.449219 57.425781 C 73.019531 57.425781 73.570313 57.652344 73.976563 58.054688 L 91.667969 75.746094 Z M 91.667969 85.554688 "/>
</g>
</svg>
