<svg width="110" height="110" viewBox="0 0 110 110" fill="none" xmlns="http://www.w3.org/2000/svg">
<g clip-path="url(#clip0_311_6280)">
<path d="M92.0941 9.16688C92.0941 8.3565 91.7722 7.57931 91.1991 7.00628C90.6261 6.43325 89.8489 6.11133 89.0385 6.11133H21.8163C21.0059 6.11133 20.2287 6.43325 19.6557 7.00628C19.0827 7.57931 18.7607 8.3565 18.7607 9.16688V12.2224H92.0941V9.16688Z" fill="#140033" fill-opacity="0.7"/>
<path d="M98.1444 21.3891C98.1444 20.5787 97.8225 19.8015 97.2495 19.2284C96.6764 18.6554 95.8993 18.3335 95.0889 18.3335H15.6444C14.834 18.3335 14.0568 18.6554 13.4838 19.2284C12.9108 19.8015 12.5889 20.5787 12.5889 21.3891V24.4446H98.1444V21.3891Z" fill="#140033" fill-opacity="0.7"/>
<path d="M98.1447 30.5557H11.8558C10.3323 30.5557 8.87113 31.1609 7.79384 32.2382C6.71654 33.3155 6.11133 34.7766 6.11133 36.3001V92.0334C6.11133 93.557 6.71654 95.0181 7.79384 96.0954C8.87113 97.1727 10.3323 97.7779 11.8558 97.7779H98.1447C99.6682 97.7779 101.129 97.1727 102.207 96.0954C103.284 95.0181 103.889 93.557 103.889 92.0334V36.3001C103.889 34.7766 103.284 33.3155 102.207 32.2382C101.129 31.1609 99.6682 30.5557 98.1447 30.5557ZM26.1558 41.0973C27.9688 41.0973 29.741 41.6349 31.2485 42.6422C32.7559 43.6494 33.9309 45.0811 34.6247 46.7561C35.3185 48.4311 35.5 50.2742 35.1463 52.0523C34.7926 53.8305 33.9196 55.4638 32.6376 56.7458C31.3556 58.0278 29.7223 58.9008 27.9441 59.2545C26.1659 59.6082 24.3228 59.4267 22.6478 58.7329C20.9729 58.0391 19.5412 56.8642 18.534 55.3567C17.5267 53.8493 16.9891 52.077 16.9891 50.264C16.9891 47.8328 17.9549 45.5013 19.674 43.7822C21.393 42.0631 23.7246 41.0973 26.1558 41.0973ZM91.6669 85.5557H18.3335L41.128 62.7307C41.5343 62.3276 42.0835 62.1015 42.6558 62.1015C43.2281 62.1015 43.7772 62.3276 44.1835 62.7307L55.428 73.9751L70.9197 58.0557C71.326 57.6526 71.8751 57.4265 72.4474 57.4265C73.0197 57.4265 73.5689 57.6526 73.9752 58.0557L91.6669 75.7473V85.5557Z" fill="#140033" fill-opacity="0.7"/>
</g>
<defs>
<clipPath id="clip0_311_6280">
<rect width="110" height="110" fill="white"/>
</clipPath>
</defs>
</svg>
